# xmcd CD database file
#
# Track frame offsets:
#	150
#	12935
#	24075
#	38702
#	52880
#	65142
#	80427
#	91352
#	106205
#	117905
#	129385
#	140555
#	152437
#	165180
#	178885
#	191100
#	203850
#	216725
#	227555
#	239335
#
# Disc length: 3443 seconds
#
# Revision: 1
# Processed by: cddbd v1.5.2PL0 Copyright (c) Steve Scherf et al.
# Submitted via: CDex 1.51
#
DISCID=0c0d7114
DTITLE=Various Artist - 50 Years of Easy-Listening Country
DYEAR=1995
DGENRE=Country
TTITLE0=(I Never Promised You A) Rose Garden
TTITLE1=Hello Darlin'
TTITLE2=Rhinestone Cowboy
TTITLE3=(If Loving You Is Wrong) I Don't Want To Be Right
TTITLE4=The Most Beautiful Girl
TTITLE5=I'm Not Lisa
TTITLE6=Heaven's Just A Sin Away
TTITLE7=Luckenbach, Texas (Back To The Basics Of Love)
TTITLE8=Before The Next Teardrop Falls
TTITLE9=The Happiest Girl In The Whole U.S.A.
TTITLE10=King Of The Road
TTITLE11=The End Of The World
TTITLE12=Detroit City
TTITLE13=Big Bad John
TTITLE14=Make The World Go Away
TTITLE15=Reuben James
TTITLE16=Still
TTITLE17=Walk On By
TTITLE18=There Goes My Everything
TTITLE19=Ode To Billie Joe
EXTD=YEAR: 1995
EXTT0=
EXTT1=
EXTT2=
EXTT3=
EXTT4=
EXTT5=
EXTT6=
EXTT7=
EXTT8=
EXTT9=
EXTT10=
EXTT11=
EXTT12=
EXTT13=
EXTT14=
EXTT15=
EXTT16=
EXTT17=
EXTT18=
EXTT19=
PLAYORDER=
